<svg width="40" height="40" viewBox="0 0 40 40" fill="none" xmlns="http://www.w3.org/2000/svg">
<path d="M16 14.6667C16 16.8758 17.7909 18.6667 20 18.6667C22.2091 18.6667 24 16.8758 24 14.6667M8 26.4003V13.6003C8 12.1068 8 11.3595 8.29065 10.7891C8.54631 10.2873 8.95396 9.87969 9.45573 9.62402C10.0262 9.33337 10.7735 9.33337 12.2669 9.33337H27.7336C29.2271 9.33337 29.9728 9.33337 30.5432 9.62402C31.045 9.87969 31.454 10.2873 31.7096 10.7891C32 11.359 32 12.1054 32 13.5959V26.4048C32 27.8954 32 28.6407 31.7096 29.2106C31.454 29.7123 31.045 30.1207 30.5432 30.3763C29.9733 30.6667 29.228 30.6667 27.7375 30.6667H12.2625C10.772 30.6667 10.0256 30.6667 9.45573 30.3763C8.95396 30.1207 8.54631 29.7123 8.29065 29.2106C8 28.6401 8 27.8938 8 26.4003Z" stroke="#323232" stroke-linecap="round" stroke-linejoin="round"/>
<rect width="12" height="12" transform="translate(6 21)" fill="#FF6567"/>
<path d="M12 31V24.6963H11.9414L10.1201 25.9609V25.2578L12 23.9541H12.6641V31H12Z" fill="white"/>
</svg>
