<svg width="40" height="40" viewBox="0 0 40 40" fill="none" xmlns="http://www.w3.org/2000/svg">
<path d="M26.6667 28C26.6667 28.7363 27.2636 29.3333 28 29.3333C28.7364 29.3333 29.3333 28.7363 29.3333 28C29.3333 27.2636 28.7364 26.6666 28 26.6666C27.2636 26.6666 26.6667 27.2636 26.6667 28Z" fill="#323232"/>
<path d="M18.6667 28C18.6667 28.7363 19.2636 29.3333 20 29.3333C20.7364 29.3333 21.3333 28.7363 21.3333 28C21.3333 27.2636 20.7364 26.6666 20 26.6666C19.2636 26.6666 18.6667 27.2636 18.6667 28Z" fill="#323232"/>
<path d="M10.6667 28C10.6667 28.7363 11.2636 29.3333 12 29.3333C12.7364 29.3333 13.3333 28.7363 13.3333 28C13.3333 27.2636 12.7364 26.6666 12 26.6666C11.2636 26.6666 10.6667 27.2636 10.6667 28Z" fill="#323232"/>
<path d="M26.6667 20C26.6667 20.7363 27.2636 21.3333 28 21.3333C28.7364 21.3333 29.3333 20.7363 29.3333 20C29.3333 19.2636 28.7364 18.6666 28 18.6666C27.2636 18.6666 26.6667 19.2636 26.6667 20Z" fill="#323232"/>
<path d="M18.6667 20C18.6667 20.7363 19.2636 21.3333 20 21.3333C20.7364 21.3333 21.3333 20.7363 21.3333 20C21.3333 19.2636 20.7364 18.6666 20 18.6666C19.2636 18.6666 18.6667 19.2636 18.6667 20Z" fill="#323232"/>
<path d="M10.6667 20C10.6667 20.7363 11.2636 21.3333 12 21.3333C12.7364 21.3333 13.3333 20.7363 13.3333 20C13.3333 19.2636 12.7364 18.6666 12 18.6666C11.2636 18.6666 10.6667 19.2636 10.6667 20Z" fill="#323232"/>
<path d="M26.6667 12C26.6667 12.7363 27.2636 13.3333 28 13.3333C28.7364 13.3333 29.3333 12.7363 29.3333 12C29.3333 11.2636 28.7364 10.6666 28 10.6666C27.2636 10.6666 26.6667 11.2636 26.6667 12Z" fill="#323232"/>
<path d="M18.6667 12C18.6667 12.7363 19.2636 13.3333 20 13.3333C20.7364 13.3333 21.3333 12.7363 21.3333 12C21.3333 11.2636 20.7364 10.6666 20 10.6666C19.2636 10.6666 18.6667 11.2636 18.6667 12Z" fill="#323232"/>
<path d="M10.6667 12C10.6667 12.7363 11.2636 13.3333 12 13.3333C12.7364 13.3333 13.3333 12.7363 13.3333 12C13.3333 11.2636 12.7364 10.6666 12 10.6666C11.2636 10.6666 10.6667 11.2636 10.6667 12Z" fill="#323232"/>
<path d="M26.6667 28C26.6667 28.7363 27.2636 29.3333 28 29.3333C28.7364 29.3333 29.3333 28.7363 29.3333 28C29.3333 27.2636 28.7364 26.6666 28 26.6666C27.2636 26.6666 26.6667 27.2636 26.6667 28Z" stroke="#323232" stroke-linecap="round"/>
<path d="M18.6667 28C18.6667 28.7363 19.2636 29.3333 20 29.3333C20.7364 29.3333 21.3333 28.7363 21.3333 28C21.3333 27.2636 20.7364 26.6666 20 26.6666C19.2636 26.6666 18.6667 27.2636 18.6667 28Z" stroke="#323232" stroke-linecap="round"/>
<path d="M10.6667 28C10.6667 28.7363 11.2636 29.3333 12 29.3333C12.7364 29.3333 13.3333 28.7363 13.3333 28C13.3333 27.2636 12.7364 26.6666 12 26.6666C11.2636 26.6666 10.6667 27.2636 10.6667 28Z" stroke="#323232" stroke-linecap="round"/>
<path d="M26.6667 20C26.6667 20.7363 27.2636 21.3333 28 21.3333C28.7364 21.3333 29.3333 20.7363 29.3333 20C29.3333 19.2636 28.7364 18.6666 28 18.6666C27.2636 18.6666 26.6667 19.2636 26.6667 20Z" stroke="#323232" stroke-linecap="round"/>
<path d="M18.6667 20C18.6667 20.7363 19.2636 21.3333 20 21.3333C20.7364 21.3333 21.3333 20.7363 21.3333 20C21.3333 19.2636 20.7364 18.6666 20 18.6666C19.2636 18.6666 18.6667 19.2636 18.6667 20Z" stroke="#323232" stroke-linecap="round"/>
<path d="M10.6667 20C10.6667 20.7363 11.2636 21.3333 12 21.3333C12.7364 21.3333 13.3333 20.7363 13.3333 20C13.3333 19.2636 12.7364 18.6666 12 18.6666C11.2636 18.6666 10.6667 19.2636 10.6667 20Z" stroke="#323232" stroke-linecap="round"/>
<path d="M26.6667 12C26.6667 12.7363 27.2636 13.3333 28 13.3333C28.7364 13.3333 29.3333 12.7363 29.3333 12C29.3333 11.2636 28.7364 10.6666 28 10.6666C27.2636 10.6666 26.6667 11.2636 26.6667 12Z" stroke="#323232" stroke-linecap="round"/>
<path d="M18.6667 12C18.6667 12.7363 19.2636 13.3333 20 13.3333C20.7364 13.3333 21.3333 12.7363 21.3333 12C21.3333 11.2636 20.7364 10.6666 20 10.6666C19.2636 10.6666 18.6667 11.2636 18.6667 12Z" stroke="#323232" stroke-linecap="round"/>
<path d="M10.6667 12C10.6667 12.7363 11.2636 13.3333 12 13.3333C12.7364 13.3333 13.3333 12.7363 13.3333 12C13.3333 11.2636 12.7364 10.6666 12 10.6666C11.2636 10.6666 10.6667 11.2636 10.6667 12Z" stroke="#323232" stroke-linecap="round"/>
</svg>
