<svg width="45" height="25" viewBox="0 0 45 25" fill="none" xmlns="http://www.w3.org/2000/svg">
<g clip-path="url(#clip0_714_3452)">
<mask id="mask0_714_3452" style="mask-type:luminance" maskUnits="userSpaceOnUse" x="0" y="0" width="45" height="25">
<path d="M0.149994 24.8486H44.8504V0.151096H0.149994V24.8486Z" fill="white"/>
</mask>
<g mask="url(#mask0_714_3452)">
<path d="M0.149994 24.7114H1.15175V22.7061C1.15175 22.3489 1.15175 21.9083 1.33319 21.6502C1.51371 21.3696 1.83793 21.2784 2.01891 21.2784C2.86288 21.2784 2.86288 22.2815 2.86288 22.63V24.7114H3.86419V22.4328C3.86419 22.1055 3.86419 21.3999 3.4804 20.9368C3.13435 20.5109 2.58368 20.3504 2.22263 20.3504C1.5892 20.3504 1.2427 20.7012 1.07718 20.8607V20.4948H0.149994V24.7114Z" fill="#323232"/>
<path fill-rule="evenodd" clip-rule="evenodd" d="M8.42025 23.0555C8.4489 22.9194 8.48028 22.7442 8.48028 22.5471C8.48028 21.4844 7.64358 20.3276 6.3176 20.3276C5.02891 20.3276 4.11765 21.4229 4.11765 22.6149C4.11765 23.845 5.08212 24.8486 6.32533 24.8486C7.30481 24.8486 8.10285 24.143 8.34431 23.3829H7.2889C7.1011 23.7322 6.77006 23.9216 6.32533 23.9216C5.6096 23.9216 5.21762 23.3293 5.17215 23.0555H8.42025ZM5.14214 22.2427C5.3304 21.4601 5.9561 21.2551 6.32533 21.2551C6.8228 21.2551 7.3421 21.5664 7.45533 22.2427H5.14214Z" fill="#323232"/>
<path d="M9.76587 24.7114H10.3825L11.1741 21.9771H11.1887L11.9731 24.7114H12.5906L14.1199 20.4948H13.0503L12.281 23.0705H12.2664L11.5875 20.4948H10.7899L10.1042 23.0705H10.0892L9.32842 20.4948H8.25845L9.76587 24.7114Z" fill="#323232"/>
<path fill-rule="evenodd" clip-rule="evenodd" d="M16.0594 24.7113H16.9779V24.2024C17.2257 24.4839 17.5813 24.8484 18.3875 24.8484C19.9163 24.8484 20.4666 23.428 20.4666 22.584C20.4666 21.4685 19.638 20.3503 18.3648 20.3503C17.8974 20.3503 17.4072 20.5259 17.0607 20.8757V19.09H16.0594V24.7113ZM17.0002 22.5468C17.0002 21.9316 17.4749 21.2783 18.2434 21.2783C18.8768 21.2783 19.4648 21.7711 19.4648 22.5927C19.4648 23.412 18.9146 23.9218 18.2589 23.9218C17.6714 23.9218 17.0002 23.4812 17.0002 22.5468Z" fill="#323232"/>
<path fill-rule="evenodd" clip-rule="evenodd" d="M25.1442 20.495H24.2243V21.0282H24.2093C24.1788 20.9667 23.6736 20.3501 22.8233 20.3501C21.6633 20.3501 20.7284 21.2849 20.7284 22.5774C20.7284 23.9821 21.6856 24.8486 22.7633 24.8486C23.2899 24.8486 23.9083 24.5667 24.2243 24.1889V24.7115H25.1442V20.495ZM24.1952 22.5929C24.1952 23.3751 23.6668 23.9216 22.9734 23.9216C22.2581 23.9216 21.7302 23.3366 21.7302 22.6227C21.7302 21.9923 22.1521 21.2785 22.9734 21.2785C23.5691 21.2785 24.1952 21.7186 24.1952 22.5929Z" fill="#323232"/>
<path d="M26.6786 19.0901H25.6769V24.7114H26.6786V19.0901Z" fill="#323232"/>
<path fill-rule="evenodd" clip-rule="evenodd" d="M31.3947 20.495H30.4757V21.0282H30.4602C30.4298 20.9667 29.9246 20.3501 29.0742 20.3501C27.9129 20.3501 26.9793 21.2849 26.9793 22.5774C26.9793 23.9821 27.9365 24.8486 29.0137 24.8486C29.5408 24.8486 30.1583 24.5667 30.4757 24.1889V24.7115H31.3947V20.495ZM30.4452 22.5929C30.4452 23.3751 29.9182 23.9216 29.2247 23.9216C28.5085 23.9216 27.9815 23.3366 27.9815 22.6227C27.9815 21.9923 28.4035 21.2785 29.2247 21.2785C29.82 21.2785 30.4452 21.7186 30.4452 22.5929Z" fill="#323232"/>
<path d="M31.928 24.7114H32.9293V22.7061C32.9293 22.3489 32.9293 21.9083 33.1108 21.6502C33.2913 21.3696 33.6164 21.2784 33.7965 21.2784C34.64 21.2784 34.64 22.2815 34.64 22.63V24.7114H35.6427V22.4328C35.6427 22.1055 35.6427 21.3999 35.2575 20.9368C34.911 20.5109 34.3617 20.3504 33.9998 20.3504C33.3663 20.3504 33.0207 20.7012 32.8543 20.8607V20.4948H31.928V24.7114Z" fill="#323232"/>
<path d="M39.2028 23.3368C38.9386 23.7623 38.608 23.9218 38.2765 23.9218C37.5221 23.9218 37.0178 23.3217 37.0178 22.6C37.0178 21.734 37.6208 21.2783 38.2306 21.2783C38.8485 21.2783 39.0827 21.6808 39.2028 21.8931H40.3337C39.9039 20.5938 38.7576 20.3503 38.2306 20.3503C37.0778 20.3503 36.0161 21.2938 36.0161 22.584C36.0161 23.9823 37.1674 24.8484 38.2387 24.8484C39.2182 24.8484 39.9935 24.2785 40.3337 23.3368H39.2028Z" fill="#323232"/>
<path fill-rule="evenodd" clip-rule="evenodd" d="M44.7904 23.0555C44.82 22.9194 44.85 22.7442 44.85 22.5471C44.85 21.4844 44.0142 20.3276 42.6882 20.3276C41.3995 20.3276 40.4878 21.4229 40.4878 22.6149C40.4878 23.845 41.4523 24.8486 42.6955 24.8486C43.6745 24.8486 44.4739 24.143 44.7145 23.3829H43.66C43.4713 23.7322 43.1407 23.9216 42.6955 23.9216C41.9793 23.9216 41.5878 23.3293 41.5437 23.0555H44.7904ZM41.5128 22.2427C41.7015 21.4601 42.3263 21.2551 42.6955 21.2551C43.1934 21.2551 43.7127 21.5664 43.8255 22.2427H41.5128Z" fill="#323232"/>
<path fill-rule="evenodd" clip-rule="evenodd" d="M17.2036 10.7356L15.8644 13.0673L8.45194 12.6469L9.19405 11.3481L17.2036 10.7356ZM22.5621 3.30552L23.2337 5.87894L12.7159 5.18206L13.4576 3.88366L22.5621 3.30552ZM15.5893 0.151224L21.7458 0.155809L22.2106 1.91543L14.8486 1.44962L15.5893 0.151224ZM15.0482 14.5175L13.9791 16.3707L6.32019 16.3789L7.06185 15.081L15.0482 14.5175ZM28.4948 9.51785L26.6409 12.7579H28.4066C29.2247 12.7579 30.6907 12.3462 31.1418 11.1716C31.5597 10.0799 30.7917 9.51647 30.2555 9.51647L28.4948 9.51785ZM30.2628 6.41856L31.803 6.40893C32.8279 6.40343 33.897 5.93075 34.288 4.97162C34.6486 4.08172 34.1639 3.32386 33.5214 3.32661L32.0317 3.32478L30.2628 6.41856ZM23.2914 5.87894L24.8466 3.15881L30.11 2.81817L30.2937 2.48807L25.425 2.14467L26.5636 0.151224L35.5926 0.150766C38.3692 0.150766 40.4232 1.15162 39.6247 4.09502C39.3846 4.98675 38.256 7.23144 34.946 8.17177C35.6486 8.25612 37.3984 9.03782 37.0969 11.0643C36.5612 14.6578 31.9467 16.3684 29.3797 16.3693L18.7201 16.3743L18.1949 14.2951L23.778 13.8981L23.9676 13.5689L17.912 13.1971L17.2595 10.7323L25.8761 10.2253L26.0634 9.89884L10.5832 8.91404L11.3249 7.6161L27.9878 6.52539L28.1765 6.19849L23.2914 5.87894Z" fill="#323232"/>
</g>
</g>
<defs>
<clipPath id="clip0_714_3452">
<rect width="45" height="25" fill="white"/>
</clipPath>
</defs>
</svg>
