<svg width="56" height="56" viewBox="0 0 56 56" fill="none" xmlns="http://www.w3.org/2000/svg">
<path d="M9.29476 37.9931C7.86456 37.9366 6.69444 37.5477 5.7795 36.8254C5.60489 36.6874 5.18881 36.2737 5.04921 36.0992C4.6782 35.6356 4.42595 35.1844 4.25771 34.6838C3.73999 33.1428 4.00644 31.1206 5.01983 28.9014C5.8875 27.0014 7.22635 25.117 9.56219 22.5072C9.90627 22.1231 10.9309 21 10.9375 21C10.94 21 10.8841 21.0961 10.8139 21.2132C10.2065 22.2241 9.68684 23.4149 9.40374 24.4458C8.94896 26.1 9.00382 27.5196 9.56439 28.6203C9.95108 29.3786 10.614 30.0355 11.3595 30.3986C12.6646 31.034 14.5752 31.0866 16.9086 30.5524C17.0693 30.5154 25.0299 28.4154 34.599 25.8856C44.1682 23.3555 51.9988 21.2872 52 21.2889C52.0027 21.2911 29.7682 30.7459 18.2259 35.6509C16.398 36.4275 15.9092 36.6237 15.0499 36.9235C12.8531 37.6901 10.8854 38.0559 9.29476 37.9931Z" fill="#323232"/>
</svg>
