<svg width="46" height="16" viewBox="0 0 46 16" fill="none" xmlns="http://www.w3.org/2000/svg">
<path d="M17.4628 13.8136C17.0743 13.8034 16.7424 13.4878 16.7424 13.0983V0.346191H12.497V14.4041C12.497 15.0939 13.0605 15.6564 13.7526 15.6564H21.1782C21.8755 15.6564 22.4338 15.0939 22.4338 14.4041V0.346191H18.1884L18.1833 13.0983C18.1858 13.4878 17.8539 13.8034 17.4628 13.8136ZM31.6889 0.346191H25.259C24.4974 0.346191 23.8773 0.957073 23.8773 1.71813V15.6539H28.1304V2.87117C28.133 2.47919 28.4546 2.16865 28.8483 2.16865C29.2445 2.16865 29.5636 2.47155 29.5739 2.85844V15.6539H33.809V2.86099C33.8141 2.47409 34.1332 2.1712 34.5294 2.1712C34.9231 2.1712 35.2473 2.48173 35.2499 2.87371V15.6539H39.503V1.71813C39.503 0.957073 38.8829 0.346191 38.1213 0.346191H31.6889ZM6.81068 2.89662C6.81326 2.47155 6.46333 2.16865 6.09025 2.16865H5.36981V9.91158H6.09025C6.4659 9.91158 6.81326 9.61632 6.81068 9.19379V2.89662ZM9.66155 11.8079H5.36981V15.6539H1.12439V0.346191H9.68985C10.4566 0.346191 11.0561 0.962164 11.0561 1.72577V10.4283C11.0535 11.1919 10.4334 11.8079 9.66155 11.8079Z" fill="#323232"/>
<path d="M46.6302 9.91412V2.86608C46.6199 2.47664 46.3034 2.17629 45.9072 2.17629C45.5161 2.17629 45.1919 2.48682 45.1867 2.87626V9.91412H46.6302ZM46.6302 15.6539V11.8104H45.1867V15.6539H40.9413V1.71813C40.9413 0.957073 41.5614 0.346191 42.323 0.346191H49.4939C50.2555 0.346191 50.8756 0.957073 50.8756 1.71813V15.6539H46.6302Z" fill="#323232"/>
</svg>
