<svg width="26" height="26" viewBox="0 0 26 26" fill="none" xmlns="http://www.w3.org/2000/svg">
<path d="M15.1667 16.2501H22.75M3.25 16.2501H5.41667M5.41667 16.2501C5.41667 17.7459 6.62923 18.9584 8.125 18.9584C9.62077 18.9584 10.8333 17.7459 10.8333 16.2501C10.8333 14.7543 9.62077 13.5417 8.125 13.5417C6.62923 13.5417 5.41667 14.7543 5.41667 16.2501ZM21.6667 9.75008H22.75M3.25 9.75008H10.8333M17.875 12.4584C16.3792 12.4584 15.1667 11.2459 15.1667 9.75008C15.1667 8.25431 16.3792 7.04175 17.875 7.04175C19.3708 7.04175 20.5833 8.25431 20.5833 9.75008C20.5833 11.2459 19.3708 12.4584 17.875 12.4584Z" stroke="#323232"/>
</svg>
